<svg width="20" height="20" viewBox="0 0 20 20" fill="none" xmlns="http://www.w3.org/2000/svg">
    <path d="M18.25 10.2025C18.2537 10.0675 18.2537 9.93254 18.25 9.79754L19.6487 8.05004C19.7221 7.95829 19.7729 7.8506 19.797 7.73563C19.8211 7.62067 19.8178 7.50165 19.7875 7.38817C19.5578 6.52637 19.2148 5.69884 18.7675 4.92723C18.7089 4.82628 18.6275 4.7404 18.5299 4.67644C18.4322 4.61248 18.321 4.57219 18.205 4.55879L15.9812 4.31129C15.8887 4.21379 15.795 4.12004 15.7 4.03004L15.4375 1.80067C15.424 1.68462 15.3836 1.57333 15.3194 1.47567C15.2553 1.37801 15.1693 1.29668 15.0681 1.23817C14.2966 0.791214 13.469 0.448838 12.6072 0.220043C12.4937 0.189724 12.3747 0.186484 12.2597 0.210584C12.1448 0.234685 12.0371 0.285451 11.9453 0.358793L10.2025 1.75004H9.7975L8.05 0.354105C7.95825 0.280763 7.85055 0.229997 7.73559 0.205897C7.62062 0.181797 7.50161 0.185037 7.38812 0.215355C6.52633 0.445068 5.6988 0.788058 4.92719 1.23536C4.82623 1.29397 4.74036 1.37535 4.67639 1.473C4.61243 1.57065 4.57215 1.68189 4.55875 1.79786L4.31125 4.02536C4.21375 4.11848 4.12 4.21223 4.03 4.30661L1.80062 4.56254C1.68457 4.57605 1.57328 4.61647 1.47562 4.6806C1.37796 4.74473 1.29663 4.83079 1.23812 4.93192C0.79126 5.70363 0.448592 6.53114 0.21906 7.39286C0.188869 7.50641 0.185781 7.62547 0.210045 7.74044C0.234308 7.8554 0.285244 7.96306 0.358747 8.05473L1.75 9.79754V10.2025L0.35406 11.95C0.280717 12.0418 0.229951 12.1495 0.205851 12.2645C0.181751 12.3794 0.184991 12.4984 0.215309 12.6119C0.445022 13.4737 0.788013 14.3012 1.23531 15.0729C1.29393 15.1738 1.3753 15.2597 1.47296 15.3236C1.57061 15.3876 1.68184 15.4279 1.79781 15.4413L4.02156 15.6888C4.11469 15.7863 4.20844 15.88 4.30281 15.97L4.5625 18.1994C4.576 18.3155 4.61643 18.4268 4.68056 18.5244C4.74469 18.6221 4.83075 18.7034 4.93187 18.7619C5.70359 19.2088 6.5311 19.5515 7.39281 19.781C7.50636 19.8112 7.62542 19.8143 7.74039 19.79C7.85536 19.7657 7.96302 19.7148 8.05469 19.6413L9.7975 18.25C9.9325 18.2538 10.0675 18.2538 10.2025 18.25L11.95 19.6488C12.0417 19.7221 12.1494 19.7729 12.2644 19.797C12.3794 19.8211 12.4984 19.8179 12.6119 19.7875C13.4738 19.5582 14.3014 19.2152 15.0728 18.7675C15.1738 18.7089 15.2596 18.6276 15.3236 18.5299C15.3876 18.4322 15.4278 18.321 15.4412 18.205L15.6887 15.9813C15.7862 15.8888 15.88 15.795 15.97 15.7L18.1994 15.4375C18.3154 15.424 18.4267 15.3836 18.5244 15.3195C18.622 15.2554 18.7034 15.1693 18.7619 15.0682C19.2087 14.2965 19.5514 13.4689 19.7809 12.6072C19.8111 12.4937 19.8142 12.3746 19.79 12.2597C19.7657 12.1447 19.7148 12.037 19.6412 11.9454L18.25 10.2025ZM10 13.75C9.25832 13.75 8.53329 13.5301 7.91661 13.1181C7.29992 12.706 6.81928 12.1203 6.53545 11.4351C6.25162 10.7499 6.17736 9.99588 6.32205 9.26846C6.46675 8.54103 6.8239 7.87284 7.34835 7.34839C7.87279 6.82395 8.54098 6.46679 9.26841 6.3221C9.99584 6.1774 10.7498 6.25167 11.4351 6.53549C12.1203 6.81932 12.706 7.29997 13.118 7.91666C13.5301 8.53334 13.75 9.25836 13.75 10C13.75 10.9946 13.3549 11.9484 12.6516 12.6517C11.9484 13.355 10.9946 13.75 10 13.75Z" fill="#ffffff"/>
</svg>
