<svg fill="#333333" width="64px" height="64px" viewBox="-296.96 -296.96 1617.92 1617.92" xmlns="http://www.w3.org/2000/svg" class="icon" stroke="#333333" stroke-width="0.01024"><g id="SVGRepo_bgCarrier" stroke-width="0" transform="translate(0,0), scale(1)"><rect x="-296.96" y="-296.96" width="1617.92" height="1617.92" rx="808.96" fill="#40d47f"></rect></g><g id="SVGRepo_tracerCarrier" stroke-linecap="round" stroke-linejoin="round" stroke="#CCCCCC" stroke-width="2.048"></g><g id="SVGRepo_iconCarrier"> <path d="M480 580H372a8 8 0 0 0-8 8v48a8 8 0 0 0 8 8h108v108a8 8 0 0 0 8 8h48a8 8 0 0 0 8-8V644h108a8 8 0 0 0 8-8v-48a8 8 0 0 0-8-8H544V472a8 8 0 0 0-8-8h-48a8 8 0 0 0-8 8v108zm374.6-291.3c6 6 9.4 14.1 9.4 22.6V928c0 17.7-14.3 32-32 32H192c-17.7 0-32-14.3-32-32V96c0-17.7 14.3-32 32-32h424.7c8.5 0 16.7 3.4 22.7 9.4l215.2 215.3zM790.2 326L602 137.8V326h188.2z"></path> </g></svg>
